# xmcd
#
# Track frame offsets: 
#        150
#        22250
#        41331
#        56100
#        75123
#        95355
#        115650
#        134856
#        152723
#        169301
#        184223
#
# Disc length: 2726 seconds
#
# Revision: 1
# Processed by: cddbd v1.5.2PL0 Copyright (c) Steve Scherf et al.
# Submitted via: ExactAudioCopy v0.99pb4
#
DISCID=8f0aa40b
DTITLE=Белый Орёл - Как Мы Любим
DYEAR=2007
DGENRE=Pop
TTITLE0=Никто Не Виноват
TTITLE1=Давай Расстанемся
TTITLE2=Налево - Налево
TTITLE3=Я Ждал Тебя
TTITLE4=Дождь Смывает Все Следы
TTITLE5=Сколько
TTITLE6=Отпускаю
TTITLE7=Любовь Для Одного
TTITLE8=Заковали
TTITLE9=Сан-Тропэ
TTITLE10=Кто Мог Знать
EXTD=
EXTT0=
EXTT1=
EXTT2=
EXTT3=
EXTT4=
EXTT5=
EXTT6=
EXTT7=
EXTT8=
EXTT9=
EXTT10=
PLAYORDER=
